<svg id="Layer_1" data-name="Layer 1" xmlns="http://www.w3.org/2000/svg" viewBox="0 0 180 180"><defs><style>.cls-1{fill:#1b2e3f;}</style></defs><path class="cls-1" d="M151.8 28.49H28.2A12.24 12.24 0 0 0 16 40.69V52h148V40.69a12.24 12.24 0 0 0-12.2-12.2zm-42.43 17.69a5.1 5.1 0 1 1 5.1-5.1 5.1 5.1 0 0 1-5.1 5.1zm17.14 0a5.1 5.1 0 1 1 5.1-5.1 5.1 5.1 0 0 1-5.1 5.1zm17.14 0a5.1 5.1 0 1 1 5.1-5.1 5.1 5.1 0 0 1-5.11 5.1zM16 58v81.31a12.24 12.24 0 0 0 12.2 12.2h123.6a12.24 12.24 0 0 0 12.2-12.2V58zm49.16 49.88H34.38V77.11h30.78zM143 122H79.28a3.37 3.37 0 1 1 0-6.75H143a3.37 3.37 0 1 1 0 6.75zM75.91 99.58a3.37 3.37 0 0 1 3.37-3.37h49.31a3.37 3.37 0 1 1 0 6.75H79.28a3.37 3.37 0 0 1-3.37-3.38zm67.86-15.66H79.28a3.37 3.37 0 0 1 0-6.75h64.48a3.37 3.37 0 0 1 0 6.75z"/></svg>